<?xml version="1.0" encoding="UTF-8"?><svg id="a" xmlns="http://www.w3.org/2000/svg" width="48" height="48" viewBox="0 0 48 48"><rect x="4" y="4" width="32" height="22" rx="2" ry="2" fill="#a1a1aa" stroke-width="0"/><path d="M34,26.5H6c-1.3784,0-2.5-1.1211-2.5-2.5V6c0-1.3784,1.1216-2.5,2.5-2.5h28c1.3789,0,2.5,1.1216,2.5,2.5v18c0,1.3789-1.1211,2.5-2.5,2.5ZM6,4.5c-.8271,0-1.5.6729-1.5,1.5v18c0,.8271.6729,1.5,1.5,1.5h28c.8271,0,1.5-.6729,1.5-1.5V6c0-.8271-.6729-1.5-1.5-1.5H6Z" fill="#18181b" stroke-width="0"/><path d="M19,23.25H7c-.1382,0-.25-.1118-.25-.25s.1118-.25.25-.25h12c.1382,0,.25.1118.25.25s-.1118.25-.25.25Z" fill="#fff" stroke-width="0"/><path d="M13,21.25h-6c-.1382,0-.25-.1118-.25-.25s.1118-.25.25-.25h6c.1382,0,.25.1118.25.25s-.1118.25-.25.25Z" fill="#fff" stroke-width="0"/><path d="M29,23.25h-2c-.1377,0-.25-.1118-.25-.25s.1123-.25.25-.25h2c.1377,0,.25.1118.25.25s-.1123.25-.25.25Z" fill="#fff" stroke-width="0"/><path d="M33,23.25h-2c-.1377,0-.25-.1118-.25-.25s.1123-.25.25-.25h2c.1377,0,.25.1118.25.25s-.1123.25-.25.25Z" fill="#fff" stroke-width="0"/><circle cx="9" cy="10" r="2" fill="#fff" stroke-width="0"/><circle cx="11" cy="10" r="2" fill="#d4d4d8" stroke-width="0"/><rect x="12" y="22" width="32" height="22" rx="2" ry="2" fill="#f4f4f5" stroke-width="0"/><path d="M42,44.5H14c-1.3784,0-2.5-1.1211-2.5-2.5v-18c0-1.3784,1.1216-2.5,2.5-2.5h28c1.3789,0,2.5,1.1216,2.5,2.5v18c0,1.3789-1.1211,2.5-2.5,2.5ZM14,22.5c-.8271,0-1.5.6729-1.5,1.5v18c0,.8271.6729,1.5,1.5,1.5h28c.8271,0,1.5-.6729,1.5-1.5v-18c0-.8271-.6729-1.5-1.5-1.5H14Z" fill="#18181b" stroke-width="0"/><path d="M27,41.25h-12c-.1382,0-.25-.1123-.25-.25s.1118-.25.25-.25h12c.1377,0,.25.1123.25.25s-.1123.25-.25.25Z" fill="#71717a" stroke-width="0"/><path d="M21,39.25h-6c-.1382,0-.25-.1123-.25-.25s.1118-.25.25-.25h6c.1382,0,.25.1123.25.25s-.1118.25-.25.25Z" fill="#71717a" stroke-width="0"/><path d="M37,41.25h-2c-.1377,0-.25-.1123-.25-.25s.1123-.25.25-.25h2c.1377,0,.25.1123.25.25s-.1123.25-.25.25Z" fill="#93c5fd" stroke-width="0"/><path d="M41,41.25h-2c-.1377,0-.25-.1123-.25-.25s.1123-.25.25-.25h2c.1377,0,.25.1123.25.25s-.1123.25-.25.25Z" fill="#93c5fd" stroke-width="0"/><rect x="15" y="26" width="6" height="4" rx="1" ry="1" fill="#fcd34d" stroke-width="0"/><path d="M20,30.25h-4c-.6895,0-1.25-.5605-1.25-1.25v-2c0-.6895.5605-1.25,1.25-1.25h4c.6895,0,1.25.5605,1.25,1.25v2c0,.6895-.5605,1.25-1.25,1.25ZM16,26.25c-.4136,0-.75.3369-.75.75v2c0,.4131.3364.75.75.75h4c.4136,0,.75-.3369.75-.75v-2c0-.4131-.3364-.75-.75-.75h-4Z" fill="#f59e0b" stroke-width="0"/><path d="M18,30.25c-.6895,0-1.25-.5605-1.25-1.25v-2c0-.6895.5605-1.25,1.25-1.25s1.25.5605,1.25,1.25v2c0,.6895-.5605,1.25-1.25,1.25ZM18,26.25c-.4136,0-.75.3369-.75.75v2c0,.4131.3364.75.75.75s.75-.3369.75-.75v-2c0-.4131-.3364-.75-.75-.75Z" fill="#f59e0b" stroke-width="0"/><rect x="15" y="26.75" width="2" height=".5" fill="#f59e0b" stroke-width="0"/><rect x="15" y="28.75" width="2" height=".5" fill="#f59e0b" stroke-width="0"/><rect x="19" y="26.75" width="2" height=".5" fill="#f59e0b" stroke-width="0"/><rect x="19" y="28.75" width="2" height=".5" fill="#f59e0b" stroke-width="0"/><path d="M38.8789,29.75c-.0645,0-.1279-.0244-.1768-.0732-.0977-.0977-.0977-.2559,0-.3535.7295-.7295.7295-1.917,0-2.6465-.0977-.0977-.0977-.2559,0-.3535s.2559-.0977.3535,0c.9248.9248.9248,2.4287,0,3.3535-.0488.0488-.1123.0732-.1768.0732Z" fill="#71717a" stroke-width="0"/><path d="M39.9648,30.75c-.0635,0-.1279-.0244-.1768-.0732-.0977-.0977-.0977-.2559,0-.3535,1.2803-1.2812,1.2803-3.3652,0-4.6465-.0977-.0977-.0977-.2559,0-.3535.0977-.0986.2559-.0977.3535,0,1.4746,1.4756,1.4746,3.8779,0,5.3535-.0488.0488-.1123.0732-.1768.0732Z" fill="#71717a" stroke-width="0"/><circle cx="37.5" cy="28" r=".5" fill="#71717a" stroke-width="0"/><circle cx="36" cy="22" r="6" fill="#a855f7" stroke-width="0"/><path d="M36,28.5c-3.584,0-6.5-2.916-6.5-6.5s2.916-6.5,6.5-6.5,6.5,2.916,6.5,6.5-2.916,6.5-6.5,6.5ZM36,16.5c-3.0322,0-5.5,2.4673-5.5,5.5s2.4678,5.5,5.5,5.5,5.5-2.4678,5.5-5.5-2.4678-5.5-5.5-5.5Z" fill="#18181b" stroke-width="0"/><path d="M38.8701,22.2102l-1.2127.6063c-.3639.1819-.6589.477-.8409.8409l-.6063,1.2126c-.0866.1732-.3338.1732-.4204,0l-.6063-1.2126c-.1819-.3639-.477-.6589-.8409-.8409l-1.2127-.6063c-.1732-.0866-.1732-.3338,0-.4204l1.2127-.6063c.3639-.182.6589-.477.8409-.8409l.6063-1.2126c.0866-.1732.3338-.1732.4204,0l.6063,1.2126c.1819.3639.477.6589.8409.8409l1.2127.6063c.1732.0866.1732.3338,0,.4204Z" fill="#fff" stroke-width="0"/></svg>