<?xml version="1.0" encoding="UTF-8"?><svg id="a" xmlns="http://www.w3.org/2000/svg" width="48" height="48" viewBox="0 0 48 48"><rect x="4" y="4" width="34" height="40" rx="2" ry="2" fill="#fafafa" stroke-width="0"/><path d="M38,14.25H4c-.1382,0-.25-.1118-.25-.25s.1118-.25.25-.25h34c.1382,0,.25.1118.25.25s-.1118.25-.25.25ZM38.25,24c0-.1382-.1118-.25-.25-.25H4c-.1382,0-.25.1118-.25.25s.1118.25.25.25h34c.1382,0,.25-.1118.25-.25ZM38.25,34c0-.1377-.1118-.25-.25-.25H4c-.1382,0-.25.1123-.25.25s.1118.25.25.25h34c.1382,0,.25-.1123.25-.25Z" fill="#d4d4d8" stroke-width="0"/><path d="M36,44.5H6c-1.3784,0-2.5-1.1211-2.5-2.5V6c0-1.3784,1.1216-2.5,2.5-2.5h30c1.3784,0,2.5,1.1216,2.5,2.5v36c0,1.3789-1.1216,2.5-2.5,2.5ZM6,4.5c-.8271,0-1.5.6729-1.5,1.5v36c0,.8271.6729,1.5,1.5,1.5h30c.8271,0,1.5-.6729,1.5-1.5V6c0-.8271-.6729-1.5-1.5-1.5H6Z" fill="#18181b" stroke-width="0"/><path d="M11,8.75h-1.3965l.9873-.9873c.0977-.0977.0977-.2559,0-.3535s-.2559-.0977-.3535,0l-.9873.9873v-1.3965c0-.1382-.1118-.25-.25-.25s-.25.1118-.25.25v1.3965l-.9873-.9873c-.0977-.0977-.2559-.0977-.3535,0s-.0977.2559,0,.3535l.9873.9873h-1.3965c-.1382,0-.25.1118-.25.25s.1118.25.25.25h1.3965l-.9873.9873c-.0977.0977-.0977.2559,0,.3535.0488.0488.1128.0732.1768.0732s.1279-.0244.1768-.0732l.9873-.9873v1.3965c0,.1382.1118.25.25.25s.25-.1118.25-.25v-1.3965l.9873.9873c.0488.0488.1128.0732.1768.0732s.1279-.0244.1768-.0732c.0977-.0977.0977-.2559,0-.3535l-.9873-.9873h1.3965c.1382,0,.25-.1118.25-.25s-.1118-.25-.25-.25Z" fill="#2563eb" stroke-width="0"/><path d="M17,8.75h-1.3965l.9873-.9873c.0977-.0977.0977-.2559,0-.3535s-.2559-.0977-.3535,0l-.9873.9873v-1.3965c0-.1382-.1118-.25-.25-.25s-.25.1118-.25.25v1.3965l-.9873-.9873c-.0977-.0977-.2559-.0977-.3535,0s-.0977.2559,0,.3535l.9873.9873h-1.3965c-.1382,0-.25.1118-.25.25s.1118.25.25.25h1.3965l-.9873.9873c-.0977.0977-.0977.2559,0,.3535.0488.0488.1128.0732.1768.0732s.1279-.0244.1768-.0732l.9873-.9873v1.3965c0,.1382.1118.25.25.25s.25-.1118.25-.25v-1.3965l.9873.9873c.0488.0488.1128.0732.1768.0732s.1279-.0244.1768-.0732c.0977-.0977.0977-.2559,0-.3535l-.9873-.9873h1.3965c.1382,0,.25-.1118.25-.25s-.1118-.25-.25-.25Z" fill="#2563eb" stroke-width="0"/><path d="M23,8.75h-1.3965l.9873-.9873c.0977-.0977.0977-.2559,0-.3535s-.2559-.0977-.3535,0l-.9873.9873v-1.3965c0-.1382-.1118-.25-.25-.25s-.25.1118-.25.25v1.3965l-.9873-.9873c-.0977-.0977-.2559-.0977-.3535,0s-.0977.2559,0,.3535l.9873.9873h-1.3965c-.1382,0-.25.1118-.25.25s.1118.25.25.25h1.3965l-.9873.9873c-.0977.0977-.0977.2559,0,.3535.0488.0488.1128.0732.1768.0732s.1279-.0244.1768-.0732l.9873-.9873v1.3965c0,.1382.1118.25.25.25s.25-.1118.25-.25v-1.3965l.9873.9873c.0488.0488.1128.0732.1768.0732s.1279-.0244.1768-.0732c.0977-.0977.0977-.2559,0-.3535l-.9873-.9873h1.3965c.1382,0,.25-.1118.25-.25s-.1118-.25-.25-.25Z" fill="#2563eb" stroke-width="0"/><path d="M29,8.75h-1.3965l.9873-.9873c.0977-.0977.0977-.2559,0-.3535s-.2559-.0977-.3535,0l-.9873.9873v-1.3965c0-.1382-.1118-.25-.25-.25s-.25.1118-.25.25v1.3965l-.9873-.9873c-.0977-.0977-.2559-.0977-.3535,0s-.0977.2559,0,.3535l.9873.9873h-1.3965c-.1382,0-.25.1118-.25.25s.1118.25.25.25h1.3965l-.9873.9873c-.0977.0977-.0977.2559,0,.3535.0488.0488.1128.0732.1768.0732s.1279-.0244.1768-.0732l.9873-.9873v1.3965c0,.1382.1118.25.25.25s.25-.1118.25-.25v-1.3965l.9873.9873c.0488.0488.1128.0732.1768.0732s.1279-.0244.1768-.0732c.0977-.0977.0977-.2559,0-.3535l-.9873-.9873h1.3965c.1382,0,.25-.1118.25-.25s-.1118-.25-.25-.25Z" fill="#2563eb" stroke-width="0"/><path d="M35,8.75h-1.3965l.9873-.9873c.0977-.0977.0977-.2559,0-.3535s-.2559-.0977-.3535,0l-.9873.9873v-1.3965c0-.1382-.1118-.25-.25-.25s-.25.1118-.25.25v1.3965l-.9873-.9873c-.0977-.0977-.2559-.0977-.3535,0s-.0977.2559,0,.3535l.9873.9873h-1.3965c-.1382,0-.25.1118-.25.25s.1118.25.25.25h1.3965l-.9873.9873c-.0977.0977-.0977.2559,0,.3535.0488.0488.1128.0732.1768.0732s.1279-.0244.1768-.0732l.9873-.9873v1.3965c0,.1382.1118.25.25.25s.25-.1118.25-.25v-1.3965l.9873.9873c.0488.0488.1128.0732.1768.0732s.1279-.0244.1768-.0732c.0977-.0977.0977-.2559,0-.3535l-.9873-.9873h1.3965c.1382,0,.25-.1118.25-.25s-.1118-.25-.25-.25Z" fill="#2563eb" stroke-width="0"/><path d="M11,18.75h-1.3965l.9873-.9873c.0977-.0977.0977-.2559,0-.3535s-.2559-.0977-.3535,0l-.9873.9873v-1.3965c0-.1382-.1118-.25-.25-.25s-.25.1118-.25.25v1.3965l-.9873-.9873c-.0977-.0977-.2559-.0977-.3535,0s-.0977.2559,0,.3535l.9873.9873h-1.3965c-.1382,0-.25.1118-.25.25s.1118.25.25.25h1.3965l-.9873.9873c-.0977.0977-.0977.2559,0,.3535.0488.0488.1128.0732.1768.0732s.1279-.0244.1768-.0732l.9873-.9873v1.3965c0,.1382.1118.25.25.25s.25-.1118.25-.25v-1.3965l.9873.9873c.0488.0488.1128.0732.1768.0732s.1279-.0244.1768-.0732c.0977-.0977.0977-.2559,0-.3535l-.9873-.9873h1.3965c.1382,0,.25-.1118.25-.25s-.1118-.25-.25-.25Z" fill="#bfdbfe" stroke-width="0"/><path d="M17,18.75h-1.3965l.9873-.9873c.0977-.0977.0977-.2559,0-.3535s-.2559-.0977-.3535,0l-.9873.9873v-1.3965c0-.1382-.1118-.25-.25-.25s-.25.1118-.25.25v1.3965l-.9873-.9873c-.0977-.0977-.2559-.0977-.3535,0s-.0977.2559,0,.3535l.9873.9873h-1.3965c-.1382,0-.25.1118-.25.25s.1118.25.25.25h1.3965l-.9873.9873c-.0977.0977-.0977.2559,0,.3535.0488.0488.1128.0732.1768.0732s.1279-.0244.1768-.0732l.9873-.9873v1.3965c0,.1382.1118.25.25.25s.25-.1118.25-.25v-1.3965l.9873.9873c.0488.0488.1128.0732.1768.0732s.1279-.0244.1768-.0732c.0977-.0977.0977-.2559,0-.3535l-.9873-.9873h1.3965c.1382,0,.25-.1118.25-.25s-.1118-.25-.25-.25Z" fill="#bfdbfe" stroke-width="0"/><path d="M23,18.75h-1.3965l.9873-.9873c.0977-.0977.0977-.2559,0-.3535s-.2559-.0977-.3535,0l-.9873.9873v-1.3965c0-.1382-.1118-.25-.25-.25s-.25.1118-.25.25v1.3965l-.9873-.9873c-.0977-.0977-.2559-.0977-.3535,0s-.0977.2559,0,.3535l.9873.9873h-1.3965c-.1382,0-.25.1118-.25.25s.1118.25.25.25h1.3965l-.9873.9873c-.0977.0977-.0977.2559,0,.3535.0488.0488.1128.0732.1768.0732s.1279-.0244.1768-.0732l.9873-.9873v1.3965c0,.1382.1118.25.25.25s.25-.1118.25-.25v-1.3965l.9873.9873c.0488.0488.1128.0732.1768.0732s.1279-.0244.1768-.0732c.0977-.0977.0977-.2559,0-.3535l-.9873-.9873h1.3965c.1382,0,.25-.1118.25-.25s-.1118-.25-.25-.25Z" fill="#bfdbfe" stroke-width="0"/><path d="M29,18.75h-1.3965l.9873-.9873c.0977-.0977.0977-.2559,0-.3535s-.2559-.0977-.3535,0l-.9873.9873v-1.3965c0-.1382-.1118-.25-.25-.25s-.25.1118-.25.25v1.3965l-.9873-.9873c-.0977-.0977-.2559-.0977-.3535,0s-.0977.2559,0,.3535l.9873.9873h-1.3965c-.1382,0-.25.1118-.25.25s.1118.25.25.25h1.3965l-.9873.9873c-.0977.0977-.0977.2559,0,.3535.0488.0488.1128.0732.1768.0732s.1279-.0244.1768-.0732l.9873-.9873v1.3965c0,.1382.1118.25.25.25s.25-.1118.25-.25v-1.3965l.9873.9873c.0488.0488.1128.0732.1768.0732s.1279-.0244.1768-.0732c.0977-.0977.0977-.2559,0-.3535l-.9873-.9873h1.3965c.1382,0,.25-.1118.25-.25s-.1118-.25-.25-.25Z" fill="#bfdbfe" stroke-width="0"/><path d="M35,18.75h-1.3965l.9873-.9873c.0977-.0977.0977-.2559,0-.3535s-.2559-.0977-.3535,0l-.9873.9873v-1.3965c0-.1382-.1118-.25-.25-.25s-.25.1118-.25.25v1.3965l-.9873-.9873c-.0977-.0977-.2559-.0977-.3535,0s-.0977.2559,0,.3535l.9873.9873h-1.3965c-.1382,0-.25.1118-.25.25s.1118.25.25.25h1.3965l-.9873.9873c-.0977.0977-.0977.2559,0,.3535.0488.0488.1128.0732.1768.0732s.1279-.0244.1768-.0732l.9873-.9873v1.3965c0,.1382.1118.25.25.25s.25-.1118.25-.25v-1.3965l.9873.9873c.0488.0488.1128.0732.1768.0732s.1279-.0244.1768-.0732c.0977-.0977.0977-.2559,0-.3535l-.9873-.9873h1.3965c.1382,0,.25-.1118.25-.25s-.1118-.25-.25-.25Z" fill="#bfdbfe" stroke-width="0"/><path d="M11,28.75h-1.3965l.9873-.9873c.0977-.0977.0977-.2559,0-.3535s-.2559-.0977-.3535,0l-.9873.9873v-1.3965c0-.1377-.1118-.25-.25-.25s-.25.1123-.25.25v1.3965l-.9873-.9873c-.0977-.0977-.2559-.0977-.3535,0s-.0977.2559,0,.3535l.9873.9873h-1.3965c-.1382,0-.25.1123-.25.25s.1118.25.25.25h1.3965l-.9873.9873c-.0977.0977-.0977.2559,0,.3535.0488.0488.1128.0732.1768.0732s.1279-.0244.1768-.0732l.9873-.9873v1.3965c0,.1377.1118.25.25.25s.25-.1123.25-.25v-1.3965l.9873.9873c.0488.0488.1128.0732.1768.0732s.1279-.0244.1768-.0732c.0977-.0977.0977-.2559,0-.3535l-.9873-.9873h1.3965c.1382,0,.25-.1123.25-.25s-.1118-.25-.25-.25Z" fill="#d4d4d8" stroke-width="0"/><path d="M17,28.75h-1.3965l.9873-.9873c.0977-.0977.0977-.2559,0-.3535s-.2559-.0977-.3535,0l-.9873.9873v-1.3965c0-.1377-.1118-.25-.25-.25s-.25.1123-.25.25v1.3965l-.9873-.9873c-.0977-.0977-.2559-.0977-.3535,0s-.0977.2559,0,.3535l.9873.9873h-1.3965c-.1382,0-.25.1123-.25.25s.1118.25.25.25h1.3965l-.9873.9873c-.0977.0977-.0977.2559,0,.3535.0488.0488.1128.0732.1768.0732s.1279-.0244.1768-.0732l.9873-.9873v1.3965c0,.1377.1118.25.25.25s.25-.1123.25-.25v-1.3965l.9873.9873c.0488.0488.1128.0732.1768.0732s.1279-.0244.1768-.0732c.0977-.0977.0977-.2559,0-.3535l-.9873-.9873h1.3965c.1382,0,.25-.1123.25-.25s-.1118-.25-.25-.25Z" fill="#d4d4d8" stroke-width="0"/><path d="M23,28.75h-1.3965l.9873-.9873c.0977-.0977.0977-.2559,0-.3535s-.2559-.0977-.3535,0l-.9873.9873v-1.3965c0-.1377-.1118-.25-.25-.25s-.25.1123-.25.25v1.3965l-.9873-.9873c-.0977-.0977-.2559-.0977-.3535,0s-.0977.2559,0,.3535l.9873.9873h-1.3965c-.1382,0-.25.1123-.25.25s.1118.25.25.25h1.3965l-.9873.9873c-.0977.0977-.0977.2559,0,.3535.0488.0488.1128.0732.1768.0732s.1279-.0244.1768-.0732l.9873-.9873v1.3965c0,.1377.1118.25.25.25s.25-.1123.25-.25v-1.3965l.9873.9873c.0488.0488.1128.0732.1768.0732s.1279-.0244.1768-.0732c.0977-.0977.0977-.2559,0-.3535l-.9873-.9873h1.3965c.1382,0,.25-.1123.25-.25s-.1118-.25-.25-.25Z" fill="#d4d4d8" stroke-width="0"/><path d="M29,28.75h-1.3965l.9873-.9873c.0977-.0977.0977-.2559,0-.3535s-.2559-.0977-.3535,0l-.9873.9873v-1.3965c0-.1377-.1118-.25-.25-.25s-.25.1123-.25.25v1.3965l-.9873-.9873c-.0977-.0977-.2559-.0977-.3535,0s-.0977.2559,0,.3535l.9873.9873h-1.3965c-.1382,0-.25.1123-.25.25s.1118.25.25.25h1.3965l-.9873.9873c-.0977.0977-.0977.2559,0,.3535.0488.0488.1128.0732.1768.0732s.1279-.0244.1768-.0732l.9873-.9873v1.3965c0,.1377.1118.25.25.25s.25-.1123.25-.25v-1.3965l.9873.9873c.0488.0488.1128.0732.1768.0732s.1279-.0244.1768-.0732c.0977-.0977.0977-.2559,0-.3535l-.9873-.9873h1.3965c.1382,0,.25-.1123.25-.25s-.1118-.25-.25-.25Z" fill="#d4d4d8" stroke-width="0"/><path d="M35,28.75h-1.3965l.9873-.9873c.0977-.0977.0977-.2559,0-.3535s-.2559-.0977-.3535,0l-.9873.9873v-1.3965c0-.1377-.1118-.25-.25-.25s-.25.1123-.25.25v1.3965l-.9873-.9873c-.0977-.0977-.2559-.0977-.3535,0s-.0977.2559,0,.3535l.9873.9873h-1.3965c-.1382,0-.25.1123-.25.25s.1118.25.25.25h1.3965l-.9873.9873c-.0977.0977-.0977.2559,0,.3535.0488.0488.1128.0732.1768.0732s.1279-.0244.1768-.0732l.9873-.9873v1.3965c0,.1377.1118.25.25.25s.25-.1123.25-.25v-1.3965l.9873.9873c.0488.0488.1128.0732.1768.0732s.1279-.0244.1768-.0732c.0977-.0977.0977-.2559,0-.3535l-.9873-.9873h1.3965c.1382,0,.25-.1123.25-.25s-.1118-.25-.25-.25Z" fill="#d4d4d8" stroke-width="0"/><path d="M11,38.75h-1.3965l.9873-.9873c.0977-.0977.0977-.2559,0-.3535s-.2559-.0977-.3535,0l-.9873.9873v-1.3965c0-.1377-.1118-.25-.25-.25s-.25.1123-.25.25v1.3965l-.9873-.9873c-.0977-.0977-.2559-.0977-.3535,0s-.0977.2559,0,.3535l.9873.9873h-1.3965c-.1382,0-.25.1123-.25.25s.1118.25.25.25h1.3965l-.9873.9873c-.0977.0977-.0977.2559,0,.3535.0488.0488.1128.0732.1768.0732s.1279-.0244.1768-.0732l.9873-.9873v1.3965c0,.1377.1118.25.25.25s.25-.1123.25-.25v-1.3965l.9873.9873c.0488.0488.1128.0732.1768.0732s.1279-.0244.1768-.0732c.0977-.0977.0977-.2559,0-.3535l-.9873-.9873h1.3965c.1382,0,.25-.1123.25-.25s-.1118-.25-.25-.25Z" fill="#e4e4e7" stroke-width="0"/><path d="M17,38.75h-1.3965l.9873-.9873c.0977-.0977.0977-.2559,0-.3535s-.2559-.0977-.3535,0l-.9873.9873v-1.3965c0-.1377-.1118-.25-.25-.25s-.25.1123-.25.25v1.3965l-.9873-.9873c-.0977-.0977-.2559-.0977-.3535,0s-.0977.2559,0,.3535l.9873.9873h-1.3965c-.1382,0-.25.1123-.25.25s.1118.25.25.25h1.3965l-.9873.9873c-.0977.0977-.0977.2559,0,.3535.0488.0488.1128.0732.1768.0732s.1279-.0244.1768-.0732l.9873-.9873v1.3965c0,.1377.1118.25.25.25s.25-.1123.25-.25v-1.3965l.9873.9873c.0488.0488.1128.0732.1768.0732s.1279-.0244.1768-.0732c.0977-.0977.0977-.2559,0-.3535l-.9873-.9873h1.3965c.1382,0,.25-.1123.25-.25s-.1118-.25-.25-.25Z" fill="#e4e4e7" stroke-width="0"/><path d="M23,38.75h-1.3965l.9873-.9873c.0977-.0977.0977-.2559,0-.3535s-.2559-.0977-.3535,0l-.9873.9873v-1.3965c0-.1377-.1118-.25-.25-.25s-.25.1123-.25.25v1.3965l-.9873-.9873c-.0977-.0977-.2559-.0977-.3535,0s-.0977.2559,0,.3535l.9873.9873h-1.3965c-.1382,0-.25.1123-.25.25s.1118.25.25.25h1.3965l-.9873.9873c-.0977.0977-.0977.2559,0,.3535.0488.0488.1128.0732.1768.0732s.1279-.0244.1768-.0732l.9873-.9873v1.3965c0,.1377.1118.25.25.25s.25-.1123.25-.25v-1.3965l.9873.9873c.0488.0488.1128.0732.1768.0732s.1279-.0244.1768-.0732c.0977-.0977.0977-.2559,0-.3535l-.9873-.9873h1.3965c.1382,0,.25-.1123.25-.25s-.1118-.25-.25-.25Z" fill="#e4e4e7" stroke-width="0"/><path d="M29,38.75h-1.3965l.9873-.9873c.0977-.0977.0977-.2559,0-.3535s-.2559-.0977-.3535,0l-.9873.9873v-1.3965c0-.1377-.1118-.25-.25-.25s-.25.1123-.25.25v1.3965l-.9873-.9873c-.0977-.0977-.2559-.0977-.3535,0s-.0977.2559,0,.3535l.9873.9873h-1.3965c-.1382,0-.25.1123-.25.25s.1118.25.25.25h1.3965l-.9873.9873c-.0977.0977-.0977.2559,0,.3535.0488.0488.1128.0732.1768.0732s.1279-.0244.1768-.0732l.9873-.9873v1.3965c0,.1377.1118.25.25.25s.25-.1123.25-.25v-1.3965l.9873.9873c.0488.0488.1128.0732.1768.0732s.1279-.0244.1768-.0732c.0977-.0977.0977-.2559,0-.3535l-.9873-.9873h1.3965c.1382,0,.25-.1123.25-.25s-.1118-.25-.25-.25Z" fill="#e4e4e7" stroke-width="0"/><path d="M35,38.75h-1.3965l.9873-.9873c.0977-.0977.0977-.2559,0-.3535s-.2559-.0977-.3535,0l-.9873.9873v-1.3965c0-.1377-.1118-.25-.25-.25s-.25.1123-.25.25v1.3965l-.9873-.9873c-.0977-.0977-.2559-.0977-.3535,0s-.0977.2559,0,.3535l.9873.9873h-1.3965c-.1382,0-.25.1123-.25.25s.1118.25.25.25h1.3965l-.9873.9873c-.0977.0977-.0977.2559,0,.3535.0488.0488.1128.0732.1768.0732s.1279-.0244.1768-.0732l.9873-.9873v1.3965c0,.1377.1118.25.25.25s.25-.1123.25-.25v-1.3965l.9873.9873c.0488.0488.1128.0732.1768.0732s.1279-.0244.1768-.0732c.0977-.0977.0977-.2559,0-.3535l-.9873-.9873h1.3965c.1382,0,.25-.1123.25-.25s-.1118-.25-.25-.25Z" fill="#e4e4e7" stroke-width="0"/><circle cx="38" cy="14" r="6" fill="#10b981" stroke-width="0"/><path d="M38,20.5c-3.584,0-6.5-2.916-6.5-6.5s2.916-6.5,6.5-6.5,6.5,2.916,6.5,6.5-2.916,6.5-6.5,6.5ZM38,8.5c-3.0327,0-5.5,2.4673-5.5,5.5s2.4673,5.5,5.5,5.5,5.5-2.4673,5.5-5.5-2.4673-5.5-5.5-5.5Z" fill="#18181b" stroke-width="0"/><path d="M38,11.25c.6795,0,1.3149.2574,1.8144.7002h-.6142c-.1382,0-.25.1118-.25.25s.1118.25.25.25h1.1997c.1382,0,.25-.1118.25-.25v-1.2002c0-.1382-.1118-.25-.25-.25s-.25.1118-.25.25v.5829c-.591-.5266-1.3439-.8329-2.1499-.8329-1.792,0-3.25,1.458-3.25,3.25,0,.1382.1118.25.25.25s.25-.1118.25-.25c0-1.5166,1.2339-2.75,2.75-2.75Z" fill="#fff" stroke-width="0"/><path d="M41,13.75c-.1382,0-.25.1118-.25.25,0,1.5166-1.2339,2.75-2.75,2.75-.6795,0-1.3149-.2574-1.8144-.7002h.6142c.1382,0,.25-.1118.25-.25s-.1118-.25-.25-.25h-1.1997c-.1382,0-.25.1118-.25.25v1.2002c0,.1382.1118.25.25.25s.25-.1118.25-.25v-.583c.5911.5266,1.3439.833,2.1499.833,1.792,0,3.25-1.458,3.25-3.25,0-.1382-.1118-.25-.25-.25Z" fill="#fff" stroke-width="0"/><circle cx="38" cy="34" r="6" fill="#fb923c" stroke-width="0"/><path d="M38,40.5c-3.584,0-6.5-2.916-6.5-6.5s2.916-6.5,6.5-6.5,6.5,2.916,6.5,6.5-2.916,6.5-6.5,6.5ZM38,28.5c-3.0327,0-5.5,2.4678-5.5,5.5s2.4673,5.5,5.5,5.5,5.5-2.4678,5.5-5.5-2.4673-5.5-5.5-5.5Z" fill="#18181b" stroke-width="0"/><path d="M41,33.75c-.1382,0-.25.1123-.25.25,0,1.5166-1.2334,2.75-2.75,2.75s-2.75-1.2334-2.75-2.75,1.2334-2.75,2.75-2.75c.6796,0,1.3145.2575,1.8138.7002h-.6136c-.1382,0-.25.1123-.25.25s.1118.25.25.25h1.1997c.1382,0,.25-.1123.25-.25v-1.2002c0-.1377-.1118-.25-.25-.25s-.25.1123-.25.25v.5828c-.5909-.5265-1.344-.8328-2.1499-.8328-1.792,0-3.25,1.458-3.25,3.25s1.458,3.25,3.25,3.25,3.25-1.458,3.25-3.25c0-.1377-.1118-.25-.25-.25Z" fill="#fff" stroke-width="0"/></svg>