<?xml version="1.0" encoding="UTF-8"?><svg id="a" xmlns="http://www.w3.org/2000/svg" width="48" height="48" viewBox="0 0 48 48"><path d="M34,4H8l4,8v22c0,2.2092,1.7908,4,4,4h18c2.2092,0,4-1.7908,4-4V8c0-2.2091-1.7908-4-4-4Z" fill="#f4f4f5" stroke-width="0"/><path d="M34,38.5h-18c-2.4814,0-4.5-2.0186-4.5-4.5V12c0-.2764.2236-.5.5-.5s.5.2236.5.5v22c0,1.9297,1.5703,3.5,3.5,3.5h18c1.9297,0,3.5-1.5703,3.5-3.5V8c0-1.9297-1.5703-3.5-3.5-3.5H8c-.2764,0-.5-.2236-.5-.5s.2236-.5.5-.5h26c2.4814,0,4.5,2.0186,4.5,4.5v26c0,2.4814-2.0186,4.5-4.5,4.5Z" fill="#18181b" stroke-width="0"/><path d="M7.3281,4.0547c-1.9667.3199-3.3281,2.1667-3.3281,4.1592h0c0,2.0911,1.6951,3.7861,3.786,3.7861h4.214v-4c0-2.4296-2.1658-4.3529-4.6719-3.9453Z" fill="#a1a1aa" stroke-width="0"/><path d="M12,12.5h-4.2139c-2.3633,0-4.2861-1.9229-4.2861-4.2861,0-2.3047,1.6113-4.3052,3.748-4.6528h0c1.3223-.2129,2.6592.1528,3.666,1.0098,1.0078.8569,1.5859,2.1069,1.5859,3.4292v4c0,.2764-.2236.5-.5.5ZM7.4082,4.5483c-1.6582.2695-2.9082,1.8452-2.9082,3.6655,0,1.812,1.4746,3.2861,3.2861,3.2861h3.7139v-3.5c0-1.0283-.4502-2.0005-1.2344-2.6675-.793-.6758-1.8086-.9536-2.8574-.7842h0ZM7.3281,4.0547h.0098-.0098Z" fill="#18181b" stroke-width="0"/><path d="M33,9h-16c-.5523,0-1,.4477-1,1s.4477,1,1,1h16c.5523,0,1-.4478,1-1s-.4477-1-1-1Z" fill="#bfdbfe" stroke-width="0"/><path d="M33,17h-16c-.5523,0-1,.4477-1,1s.4477,1,1,1h16c.5523,0,1-.4478,1-1s-.4477-1-1-1Z" fill="#d4d4d8" stroke-width="0"/><path d="M33,23h-16c-.5523,0-1,.4477-1,1s.4477,1,1,1h16c.5523,0,1-.4478,1-1s-.4477-1-1-1Z" fill="#d4d4d8" stroke-width="0"/><path d="M25,29h-8c-.5523,0-1,.4477-1,1s.4477,1,1,1h8c.5523,0,1-.4478,1-1s-.4477-1-1-1Z" fill="#d4d4d8" stroke-width="0"/><circle cx="37" cy="37" r="7" fill="#fcd34d" stroke-width="0"/><path d="M37,44.5c-4.1357,0-7.5-3.3643-7.5-7.5s3.3643-7.5,7.5-7.5,7.5,3.3643,7.5,7.5-3.3643,7.5-7.5,7.5ZM37,30.5c-3.584,0-6.5,2.916-6.5,6.5s2.916,6.5,6.5,6.5,6.5-2.916,6.5-6.5-2.916-6.5-6.5-6.5Z" fill="#18181b" stroke-width="0"/><path d="M39.5996,38.2246c0,.9512-.7734,1.7256-1.7246,1.7256h-.375v.5498c0,.2764-.2236.5-.5.5s-.5-.2236-.5-.5v-.5498h-1.25c-.2764,0-.5-.2236-.5-.5s.2236-.5.5-.5h2.625c.3994,0,.7246-.3252.7246-.7256,0-.3994-.3252-.7246-.7246-.7246h-1.75c-.9512,0-1.7246-.7734-1.7246-1.7246s.7734-1.7256,1.7246-1.7256h.375v-.5498c0-.2764.2236-.5.5-.5s.5.2236.5.5v.5498h1.25c.2764,0,.5.2236.5.5s-.2236.5-.5.5h-2.625c-.3994,0-.7246.3252-.7246.7256,0,.3994.3252.7246.7246.7246h1.75c.9512,0,1.7246.7734,1.7246,1.7246Z" fill="#18181b" stroke-width="0"/></svg>