<?xml version="1.0" encoding="UTF-8"?><svg id="a" xmlns="http://www.w3.org/2000/svg" width="48" height="48" viewBox="0 0 48 48"><rect x="3.9999" y="4" width="30" height="40" rx="2" ry="2" fill="#fafafa" stroke-width="0"/><path d="M31.9999,4H5.9999c-1.1046,0-2,.8954-2,2v6h30v-6c0-1.1046-.8954-2-2-2Z" fill="#f4f4f5" stroke-width="0"/><path d="M33.9999,20.25c.1382,0,.25-.1118.25-.25s-.1118-.25-.25-.25h-7.75v-7.5h7.75c.1382,0,.25-.1118.25-.25s-.1118-.25-.25-.25H3.9999c-.1382,0-.25.1118-.25.25s.1118.25.25.25h13.75v7.5H3.9999c-.1382,0-.25.1118-.25.25s.1118.25.25.25h13.75v7.5H3.9999c-.1382,0-.25.1123-.25.25s.1118.25.25.25h13.75v7.5H3.9999c-.1382,0-.25.1123-.25.25s.1118.25.25.25h13.75v7.75c0,.1377.1118.25.25.25s.25-.1123.25-.25v-7.75h7.5v7.75c0,.1377.1118.25.25.25s.25-.1123.25-.25v-7.75h7.75c.1382,0,.25-.1123.25-.25s-.1118-.25-.25-.25h-7.75v-7.5h7.75c.1382,0,.25-.1123.25-.25s-.1118-.25-.25-.25h-7.75v-7.5h7.75ZM25.7499,35.75h-7.5v-7.5h7.5v7.5ZM25.7499,27.75h-7.5v-7.5h7.5v7.5ZM25.7499,19.75h-7.5v-7.5h7.5v7.5Z" fill="#e4e4e7" stroke-width="0"/><path d="M31.9999,44.5H5.9999c-1.3784,0-2.5-1.1211-2.5-2.5V6c0-1.3784,1.1216-2.5,2.5-2.5h26c1.3784,0,2.5,1.1216,2.5,2.5v36c0,1.3789-1.1216,2.5-2.5,2.5ZM5.9999,4.5c-.8271,0-1.5.6729-1.5,1.5v36c0,.8271.6729,1.5,1.5,1.5h26c.8271,0,1.5-.6729,1.5-1.5V6c0-.8271-.6729-1.5-1.5-1.5H5.9999Z" fill="#18181b" stroke-width="0"/><path d="M13.9999,15h-6c-.5523,0-1,.4477-1,1s.4477,1,1,1h6c.5523,0,1-.4478,1-1s-.4477-1-1-1Z" fill="#d4d4d8" stroke-width="0"/><path d="M22.9999,15h-2c-.5523,0-1,.4477-1,1s.4477,1,1,1h2c.5523,0,1-.4478,1-1s-.4477-1-1-1Z" fill="#bfdbfe" stroke-width="0"/><circle cx="29.9999" cy="16" r="1" fill="#e4e4e7" stroke-width="0"/><path d="M13.9999,23h-6c-.5523,0-1,.4477-1,1s.4477,1,1,1h6c.5523,0,1-.4478,1-1s-.4477-1-1-1Z" fill="#d4d4d8" stroke-width="0"/><path d="M22.9999,23h-2c-.5523,0-1,.4477-1,1s.4477,1,1,1h2c.5523,0,1-.4478,1-1s-.4477-1-1-1Z" fill="#bfdbfe" stroke-width="0"/><circle cx="29.9999" cy="24" r="1" fill="#e4e4e7" stroke-width="0"/><path d="M13.9999,31h-6c-.5523,0-1,.4477-1,1s.4477,1,1,1h6c.5523,0,1-.4478,1-1s-.4477-1-1-1Z" fill="#d4d4d8" stroke-width="0"/><path d="M22.9999,31h-2c-.5523,0-1,.4477-1,1s.4477,1,1,1h2c.5523,0,1-.4478,1-1s-.4477-1-1-1Z" fill="#bfdbfe" stroke-width="0"/><path d="M13.9999,39h-6c-.5523,0-1,.4477-1,1s.4477,1,1,1h6c.5523,0,1-.4478,1-1s-.4477-1-1-1Z" fill="#d4d4d8" stroke-width="0"/><path d="M22.9999,39h-2c-.5523,0-1,.4477-1,1s.4477,1,1,1h2c.5523,0,1-.4478,1-1s-.4477-1-1-1Z" fill="#bfdbfe" stroke-width="0"/><path d="M23.9999,37.0001c5.5228,9.3333,14.4772,9.3333,20,0-5.5228-9.3334-14.4772-9.3334-20,0Z" fill="#2563eb" stroke-width="0"/><path d="M33.9999,44.5c-3.9614,0-7.6655-2.5732-10.4302-7.2451-.0933-.1572-.0933-.3525,0-.5098,2.7646-4.6719,6.4688-7.2451,10.4302-7.2451s7.6655,2.5732,10.4302,7.2451c.0933.1572.0933.3525,0,.5098-2.7646,4.6719-6.4688,7.2451-10.4302,7.2451ZM24.5834,37c2.5581,4.1943,5.8936,6.5,9.4165,6.5s6.8584-2.3057,9.4165-6.5c-2.5581-4.1943-5.8936-6.5-9.4165-6.5s-6.8584,2.3057-9.4165,6.5Z" fill="#18181b" stroke-width="0"/><circle cx="33.9999" cy="37" r="3" fill="#dbeafe" stroke-width="0"/></svg>