<?xml version="1.0" encoding="UTF-8"?><svg id="a" xmlns="http://www.w3.org/2000/svg" width="48" height="48" viewBox="0 0 48 48"><rect x="4" y="16" width="32" height="24" rx="4" ry="4" fill="#a1a1aa" stroke-width="0"/><path d="M36,24.5H4c-.2764,0-.5-.2236-.5-.5s.2236-.5.5-.5h32c.2764,0,.5.2236.5.5s-.2236.5-.5.5Z" fill="#52525b" stroke-width="0"/><path d="M36,32.5H4c-.2764,0-.5-.2236-.5-.5s.2236-.5.5-.5h32c.2764,0,.5.2236.5.5s-.2236.5-.5.5Z" fill="#52525b" stroke-width="0"/><path d="M10,20c0,.5523-.4477,1-1,1s-1-.4477-1-1,.4477-1,1-1,1,.4477,1,1ZM9,27c-.5523,0-1,.4477-1,1s.4477,1,1,1,1-.4477,1-1-.4477-1-1-1ZM9,35c-.5523,0-1,.4477-1,1s.4477,1,1,1,1-.4477,1-1-.4477-1-1-1ZM13,19c-.5523,0-1,.4477-1,1s.4477,1,1,1,1-.4477,1-1-.4477-1-1-1ZM13,27c-.5523,0-1,.4477-1,1s.4477,1,1,1,1-.4477,1-1-.4477-1-1-1ZM13,35c-.5523,0-1,.4477-1,1s.4477,1,1,1,1-.4477,1-1-.4477-1-1-1ZM17,19c-.5523,0-1,.4477-1,1s.4477,1,1,1,1-.4477,1-1-.4477-1-1-1ZM17,27c-.5523,0-1,.4477-1,1s.4477,1,1,1,1-.4477,1-1-.4477-1-1-1ZM17,35c-.5523,0-1,.4477-1,1s.4477,1,1,1,1-.4477,1-1-.4477-1-1-1Z" fill="#e4e4e7" stroke-width="0"/><path d="M14,14c0-3.3086,2.6914-6,6-6s6,2.6914,6,6v2h4v-2c0-5.5142-4.4863-10-10-10s-10,4.4858-10,10v2h4v-2Z" fill="#52525b" stroke-width="0"/><path d="M32,40.5H8c-2.4814,0-4.5-2.0186-4.5-4.5v-16c0-2.4814,2.0186-4.5,4.5-4.5h1.5v-1.5c0-5.7896,4.71-10.5,10.5-10.5s10.5,4.7104,10.5,10.5v1.5h1.5c2.4814,0,4.5,2.0186,4.5,4.5v16c0,2.4814-2.0186,4.5-4.5,4.5ZM8,16.5c-1.9297,0-3.5,1.5703-3.5,3.5v16c0,1.9297,1.5703,3.5,3.5,3.5h24c1.9297,0,3.5-1.5703,3.5-3.5v-16c0-1.9297-1.5703-3.5-3.5-3.5h-2c-.2764,0-.5-.2236-.5-.5v-2c0-5.2383-4.2617-9.5-9.5-9.5s-9.5,4.2617-9.5,9.5v2c0,.2764-.2236.5-.5.5h-2ZM26,16.5h-12c-.2764,0-.5-.2236-.5-.5v-2c0-3.584,2.916-6.5,6.5-6.5s6.5,2.916,6.5,6.5v2c0,.2764-.2236.5-.5.5ZM14.5,15.5h11v-1.5c0-3.0327-2.4678-5.5-5.5-5.5s-5.5,2.4673-5.5,5.5v1.5Z" fill="#18181b" stroke-width="0"/><path d="M36,24l-8,4c0,6.2951,2.9639,12.2229,8,16,5.0361-3.7771,8-9.7049,8-16l-8-4Z" fill="#10b981" stroke-width="0"/><path d="M28,28c0,6.2951,2.9639,12.2229,8,16v-20l-8,4Z" fill="#34d399" stroke-width="0"/><path d="M36,44.5c-.1055,0-.2109-.0332-.2998-.0996-5.1348-3.8516-8.2002-9.9824-8.2002-16.4004,0-.1895.1074-.3623.2764-.4473l8-4c.1406-.0703.3066-.0703.4473,0l8,4c.1689.085.2764.2578.2764.4473,0,6.418-3.0654,12.5488-8.2002,16.4004-.0889.0664-.1943.0996-.2998.0996ZM28.5029,28.3076c.0938,5.8672,2.875,11.4512,7.4971,15.0625,4.6221-3.6113,7.4033-9.1953,7.4971-15.0625l-7.4971-3.7485-7.4971,3.7485Z" fill="#18181b" stroke-width="0"/></svg>