<svg xmlns="http://www.w3.org/2000/svg" width="800" height="600" viewBox="0 0 800 600"><g style="isolation:isolate"><rect x="151.399" y="167.087" width="420" height="266" rx="16" transform="translate(35.57 -38.287) rotate(6.378)" fill="#64748b"/><path d="M557.1,439.689l6.787-60.728a33.932,33.932,0,0,1,3-26.813l8.355-74.747a93.989,93.989,0,0,0-24.816,173.563A15.945,15.945,0,0,0,557.1,439.689Z" fill="#334155"/><rect x="176.399" y="146.087" width="420" height="266" rx="16" fill="#334155"/><circle cx="386.399" cy="279.087" r="93" fill="#475569" opacity="0.5"/><rect x="222.745" y="308.906" width="61.683" height="16.736" rx="3" fill="#fff"/><rect x="222.745" y="355.35" width="131.683" height="16.736" rx="3" fill="#64748b"/><rect x="311.286" y="308.906" width="61.683" height="16.736" rx="3" fill="#fff"/><rect x="399.828" y="308.906" width="61.683" height="16.736" rx="3" fill="#fff"/><rect x="488.37" y="308.906" width="61.683" height="16.736" rx="3" fill="#fff"/><circle cx="507.864" cy="363.718" r="17.396" fill="#64748b"/><circle cx="532.656" cy="363.718" r="17.396" fill="#64748b"/><ellipse cx="520.26" cy="363.718" rx="5" ry="12.201" fill="#cbd5e1"/><rect x="222.745" y="206.087" width="54.966" height="37.609" rx="5.275" fill="#fbbf24"/><path d="M272.436,244.7H228.02a6.282,6.282,0,0,1-6.275-6.275V211.361a6.282,6.282,0,0,1,6.275-6.274h44.416a6.282,6.282,0,0,1,6.275,6.274V238.42A6.282,6.282,0,0,1,272.436,244.7ZM228.02,207.087a4.279,4.279,0,0,0-4.275,4.274V238.42a4.28,4.28,0,0,0,4.275,4.275h44.416a4.28,4.28,0,0,0,4.275-4.275V211.361a4.279,4.279,0,0,0-4.275-4.274Z" fill="#fff"/><path d="M250.228,240.372a9.772,9.772,0,0,1-9.76-9.76V219.17a9.76,9.76,0,1,1,19.519,0v11.442A9.77,9.77,0,0,1,250.228,240.372Zm0-28.962a7.769,7.769,0,0,0-7.76,7.76v11.442a7.76,7.76,0,1,0,15.519,0V219.17A7.768,7.768,0,0,0,250.228,211.41Z" fill="#fff"/><rect x="222.745" y="218.17" width="18.724" height="2" fill="#fff"/><rect x="222.745" y="229.612" width="18.724" height="2" fill="#fff"/><rect x="258.987" y="218.17" width="18.724" height="2" fill="#fff"/><rect x="258.987" y="229.612" width="18.724" height="2" fill="#fff"/><path d="M502.4,369a93.425,93.425,0,0,0,10.473,43.087H580.4a15.985,15.985,0,0,0,14.431-9.127A34,34,0,0,1,596.4,335V275A94.106,94.106,0,0,0,502.4,369Z" fill="#0f172a" opacity="0.5" style="mix-blend-mode:multiply"/><circle cx="596.399" cy="369" r="64" fill="#fff"/><circle cx="596.399" cy="369" r="56" fill="#4ade80"/><path d="M625.537,360.7H604.7V339.862A2.862,2.862,0,0,0,601.841,337H590.956a2.862,2.862,0,0,0-2.862,2.862V360.7H567.26a2.861,2.861,0,0,0-2.861,2.861v10.886a2.861,2.861,0,0,0,2.861,2.861h20.834v20.834A2.862,2.862,0,0,0,590.956,401h10.885a2.862,2.862,0,0,0,2.862-2.862V377.3h20.834a2.862,2.862,0,0,0,2.862-2.861V363.557A2.862,2.862,0,0,0,625.537,360.7Z" fill="#fff"/></g></svg>