<svg id="Layer_1" data-name="Layer 1" xmlns="http://www.w3.org/2000/svg" viewBox="0 0 128 128"><defs><style>.cls-1{fill:#325eea;}</style></defs><path class="cls-1" d="M105.24,0H22.76A22.76,22.76,0,0,0,0,22.76v82.48A22.76,22.76,0,0,0,22.76,128h82.48A22.76,22.76,0,0,0,128,105.24V22.76A22.76,22.76,0,0,0,105.24,0Zm1.43,51.88A27.27,27.27,0,0,1,79.39,79.15H60.53l2.19-22.87a1.52,1.52,0,0,1,1.51-1.37h8.46a9.09,9.09,0,1,0,0-6.06H60.1a3,3,0,0,0-3,2.74l-5,51.52h0l0,.28H29.7a3,3,0,0,1-3-3.32l7-72.72a3,3,0,0,1,3-2.74h42.7a27.27,27.27,0,0,1,27.28,27.27Z"/></svg>