<?xml version="1.0" encoding="UTF-8"?><svg id="a" xmlns="http://www.w3.org/2000/svg" width="52" height="24" viewBox="0 0 52 24"><path d="M7.3,2.1c0-1.2,1-2.1,2.1-2.1,1.2,0,2.1.9,2.1,2.1s-1,2.1-2.1,2.1-2.1-1-2.1-2.1ZM0,.2h3.8v22.5H0V.2ZM51.4,6.7c-2.2,4.6-4.6,7.9-4.6,7.9l5.2,8.1h-4.5l-3.2-5c-3.2,3.6-6.4,5.4-9.5,5.4-3.7,0-5.3-2.6-5.3-5.6v-1.1h0v-1c0-3.9-.4-5.1-1.8-4.9-2.6.4-6.6,6.2-9.1,12.3h-3.6V6.7h3.8v8c2.2-3.6,4.2-6.7,7.4-7.8,1.8-.7,3.4-.4,4.2,0,3,1.3,2.9,4.4,2.9,8.5v1.8c0,1.5.4,2.2,1.5,2.3,1,.1,1.8-.4,1.8-.4V.2h3.8v16.1s3.3-2.9,6.8-9.7h4.2v.1ZM11.4,6.7h-3.9v16.1h3.8V6.7h.1Z" fill="#1c3944" fill-rule="evenodd" stroke-width="0"/></svg>